<svg xmlns="http://www.w3.org/2000/svg" class="ionicon" viewBox="0 0 512 512" fill="#fff">
  <path d="M349.33 69.33a93.62 93.62 0 0193.34 93.34v186.66a93.62 93.62 0 01-93.34 93.34H162.67a93.62 93.62 0 01-93.34-93.34V162.67a93.62 93.62 0 0193.34-93.34h186.66m0-37.33H162.67C90.8 32 32 90.8 32 162.67v186.66C32 421.2 90.8 480 162.67 480h186.66C421.2 480 480 421.2 480 349.33V162.67C480 90.8 421.2 32 349.33 32z"/>
  <path d="M176 176L336 336M336 176L176 336" stroke="#fff" stroke-width="40" stroke-linecap="round" />
</svg>
